<svg width="500" height="500" viewBox="0 0 500 500" fill="none" xmlns="http://www.w3.org/2000/svg">
<g clip-path="url(#clip0_11_4053)">
<path d="M500 0H0V500H500V0Z" fill="url(#paint0_linear_11_4053)"/>
<path d="M30.2559 421.866H457.249" stroke="white" stroke-width="2.07611" stroke-miterlimit="10" stroke-linecap="round" stroke-linejoin="round"/>
<path d="M400.841 402.85L383.038 398.48C382.28 398.293 381.813 397.525 382 396.756L412.436 272.844C412.623 272.086 413.391 271.619 414.159 271.806L431.962 276.176C432.719 276.363 433.187 277.131 433 277.899L402.564 401.812C402.377 402.569 401.609 403.037 400.841 402.85Z" fill="#0B6A7A"/>
<path d="M404.007 395.936L403.717 397.13L397.447 395.594C397.115 395.511 396.917 395.179 396.99 394.847C397.073 394.525 397.405 394.317 397.738 394.4L404.007 395.936Z" fill="#00181B"/>
<path d="M403.083 399.694L402.792 400.888L396.523 399.352C396.19 399.269 395.993 398.937 396.066 398.604C396.149 398.283 396.481 398.075 396.813 398.158L403.083 399.694Z" fill="#00181B"/>
<path d="M432.637 279.384L432.346 280.578L426.076 279.041C425.744 278.958 425.547 278.626 425.62 278.294C425.703 277.972 426.035 277.764 426.367 277.847L432.637 279.384Z" fill="#00181B"/>
<path d="M431.713 283.142L431.422 284.335L425.152 282.799C424.82 282.716 424.623 282.384 424.696 282.052C424.779 281.73 425.111 281.522 425.443 281.605L431.713 283.142Z" fill="#00181B"/>
<path d="M430.789 286.899L430.498 288.093L424.229 286.557C423.896 286.474 423.699 286.142 423.772 285.809C423.855 285.488 424.187 285.28 424.519 285.363L430.789 286.899Z" fill="#00181B"/>
<path d="M429.865 290.668L429.575 291.861L423.305 290.325C422.973 290.242 422.775 289.91 422.848 289.578C422.931 289.256 423.263 289.059 423.595 289.131L429.865 290.668Z" fill="#00181B"/>
<path d="M428.941 294.426L428.651 295.62L422.381 294.083C422.049 294 421.852 293.668 421.924 293.336C422.007 293.014 422.339 292.806 422.672 292.889L428.941 294.426Z" fill="#00181B"/>
<path d="M428.018 298.184L427.727 299.377L421.457 297.841C421.125 297.758 420.928 297.426 421 297.094C421.083 296.772 421.416 296.564 421.748 296.647L428.018 298.184Z" fill="#00181B"/>
<path d="M427.094 301.941L426.803 303.135L420.533 301.599C420.201 301.516 420.004 301.184 420.077 300.851C420.16 300.53 420.492 300.322 420.824 300.405L427.094 301.941Z" fill="#00181B"/>
<path d="M426.169 305.698L425.878 306.892L419.608 305.356C419.276 305.273 419.079 304.94 419.152 304.608C419.235 304.286 419.567 304.079 419.899 304.162L426.169 305.698Z" fill="#00181B"/>
<path d="M425.246 309.456L424.955 310.65L418.686 309.113C418.353 309.03 418.156 308.698 418.229 308.366C418.312 308.044 418.644 307.837 418.976 307.92L425.246 309.456Z" fill="#00181B"/>
<path d="M424.321 313.224L424.031 314.417L417.761 312.881C417.429 312.798 417.231 312.466 417.304 312.134C417.387 311.812 417.719 311.604 418.051 311.687L424.321 313.224Z" fill="#00181B"/>
<path d="M423.398 316.981L423.107 318.175L416.837 316.639C416.505 316.556 416.308 316.224 416.38 315.891C416.463 315.57 416.795 315.362 417.128 315.445L423.398 316.981Z" fill="#00181B"/>
<path d="M422.475 320.739L422.184 321.933L415.914 320.397C415.582 320.314 415.385 319.981 415.457 319.649C415.54 319.327 415.873 319.12 416.205 319.203L422.475 320.739Z" fill="#00181B"/>
<path d="M421.55 324.497L421.259 325.691L414.989 324.154C414.657 324.071 414.46 323.739 414.533 323.407C414.616 323.085 414.948 322.878 415.28 322.961L421.55 324.497Z" fill="#00181B"/>
<path d="M420.626 328.256L420.335 329.45L414.066 327.913C413.733 327.83 413.536 327.498 413.609 327.166C413.692 326.844 414.024 326.636 414.356 326.72L420.626 328.256Z" fill="#00181B"/>
<path d="M419.702 332.023L419.412 333.217L413.142 331.681C412.81 331.598 412.612 331.266 412.685 330.933C412.768 330.612 413.1 330.404 413.432 330.487L419.702 332.023Z" fill="#00181B"/>
<path d="M418.789 335.781L418.498 336.975L412.229 335.439C411.896 335.356 411.699 335.023 411.772 334.691C411.855 334.369 412.187 334.162 412.519 334.245L418.789 335.781Z" fill="#00181B"/>
<path d="M417.865 339.539L417.574 340.733L411.304 339.196C410.972 339.113 410.775 338.781 410.848 338.449C410.931 338.127 411.263 337.92 411.595 338.003L417.865 339.539Z" fill="#00181B"/>
<path d="M416.941 343.296L416.651 344.49L410.381 342.954C410.049 342.871 409.852 342.539 409.924 342.207C410.007 341.885 410.339 341.687 410.672 341.76L416.941 343.296Z" fill="#00181B"/>
<path d="M416.017 347.055L415.726 348.248L409.457 346.712C409.124 346.629 408.927 346.297 409 345.965C409.083 345.643 409.415 345.435 409.747 345.518L416.017 347.055Z" fill="#00181B"/>
<path d="M415.093 350.823L414.803 352.017L408.533 350.481C408.201 350.398 408.003 350.065 408.076 349.733C408.159 349.411 408.491 349.204 408.823 349.287L415.093 350.823Z" fill="#00181B"/>
<path d="M414.17 354.581L413.879 355.775L407.609 354.238C407.277 354.155 407.08 353.823 407.153 353.491C407.236 353.169 407.568 352.962 407.9 353.045L414.17 354.581Z" fill="#00181B"/>
<path d="M413.246 358.338L412.955 359.532L406.685 357.996C406.353 357.913 406.156 357.581 406.228 357.249C406.311 356.927 406.644 356.729 406.976 356.802L413.246 358.338Z" fill="#00181B"/>
<path d="M412.322 362.096L412.031 363.289L405.761 361.753C405.429 361.67 405.232 361.338 405.305 361.006C405.388 360.684 405.72 360.476 406.052 360.559L412.322 362.096Z" fill="#00181B"/>
<path d="M411.398 365.854L411.107 367.047L404.837 365.511C404.505 365.428 404.308 365.096 404.381 364.764C404.464 364.442 404.796 364.234 405.128 364.317L411.398 365.854Z" fill="#00181B"/>
<path d="M410.474 369.611L410.183 370.805L403.914 369.269C403.581 369.186 403.384 368.854 403.457 368.521C403.54 368.2 403.872 367.992 404.204 368.075L410.474 369.611Z" fill="#00181B"/>
<path d="M409.55 373.379L409.26 374.573L402.99 373.036C402.658 372.953 402.46 372.621 402.533 372.289C402.616 371.967 402.948 371.76 403.28 371.843L409.55 373.379Z" fill="#00181B"/>
<path d="M408.626 377.138L408.336 378.331L402.066 376.795C401.734 376.712 401.537 376.38 401.609 376.048C401.692 375.726 402.024 375.518 402.357 375.601L408.626 377.138Z" fill="#00181B"/>
<path d="M407.703 380.895L407.412 382.089L401.142 380.553C400.81 380.47 400.613 380.138 400.685 379.806C400.768 379.484 401.101 379.276 401.433 379.359L407.703 380.895Z" fill="#00181B"/>
<path d="M406.779 384.653L406.488 385.847L400.218 384.311C399.886 384.228 399.689 383.896 399.762 383.563C399.845 383.242 400.177 383.034 400.509 383.117L406.779 384.653Z" fill="#00181B"/>
<path d="M405.855 388.411L405.564 389.605L399.294 388.069C398.962 387.986 398.765 387.653 398.837 387.321C398.92 386.999 399.253 386.792 399.585 386.875L405.855 388.411Z" fill="#00181B"/>
<path d="M404.931 392.179L404.64 393.372L398.37 391.836C398.038 391.753 397.841 391.421 397.913 391.089C397.997 390.767 398.329 390.559 398.661 390.642L404.931 392.179Z" fill="#00181B"/>
<path d="M359.931 297.735C357.025 298.41 355.208 301.306 355.872 304.223L356.62 307.452L367.166 305.023L366.419 301.794C365.744 298.877 362.848 297.061 359.931 297.735Z" fill="#11CA87"/>
<path d="M356.62 307.441L376.426 393.516C376.986 395.945 377.827 398.302 378.948 400.533C380.422 403.471 382.633 407.468 384.772 409.949L385.519 413.187C385.633 413.706 386.152 414.028 386.671 413.904C387.19 413.789 387.512 413.27 387.388 412.751L386.64 409.513C387.481 406.347 387.72 401.79 387.761 398.499C387.792 395.997 387.522 393.516 386.962 391.087L367.156 305.012L356.62 307.441Z" fill="#0B6A7A"/>
<path d="M377.837 395.335C380.806 395.636 383.463 393.467 383.764 390.498L384.097 387.207L373.332 386.117L373 389.408C372.709 392.387 374.868 395.034 377.837 395.335Z" fill="#11CA87"/>
<path d="M390.688 389.054L399.585 301.173C399.834 298.692 399.792 296.19 399.45 293.72C399.107 291.28 398.567 288.145 397.799 285.446C397.28 283.63 397.073 281.74 397.27 279.862L397.29 279.633C397.342 279.104 396.958 278.637 396.429 278.585C395.899 278.533 395.432 278.917 395.38 279.446L395.36 279.675C395.173 281.554 394.592 283.36 393.72 285.041C392.432 287.533 391.27 290.491 390.45 292.816C389.619 295.173 389.069 297.612 388.82 300.093L379.924 387.975L390.688 389.054Z" fill="#11CA87"/>
<path d="M387.761 390.445L384.938 302.159C384.855 299.668 384.481 297.197 383.817 294.789C383.152 292.412 382.208 289.37 381.087 286.806C380.339 285.073 379.883 283.225 379.82 281.346L379.81 281.107C379.789 280.578 379.353 280.163 378.824 280.183C378.294 280.204 377.879 280.64 377.9 281.169L377.91 281.408C377.973 283.298 377.63 285.166 376.997 286.941C376.042 289.578 375.294 292.671 374.786 295.09C374.267 297.529 374.059 300.021 374.132 302.522L376.955 390.809L387.761 390.445Z" fill="#0B6A7A"/>
<path d="M402.419 295.649C399.439 295.473 396.875 297.746 396.699 300.725L391.737 383.5C391.592 385.991 391.737 388.482 392.183 390.943C392.775 394.181 393.761 398.635 395.111 401.614L394.913 404.936C394.882 405.465 395.287 405.922 395.817 405.953C396.346 405.984 396.803 405.579 396.834 405.05L397.031 401.728C398.733 398.925 400.249 394.628 401.214 391.482C401.951 389.095 402.398 386.635 402.543 384.143L407.505 301.369C407.671 298.39 405.398 295.826 402.419 295.649Z" fill="#197787"/>
<path d="M406.031 420.818H373.229C369.824 420.818 366.98 418.202 366.699 414.808L360.647 341.48C360.544 340.276 361.499 339.248 362.703 339.248H416.567C417.772 339.248 418.727 340.276 418.623 341.48L412.571 414.808C412.28 418.202 409.446 420.818 406.031 420.818Z" fill="#326C79"/>
<path d="M252.88 370.28H212.14V398.3H252.88V370.28Z" fill="#CCF1FF"/>
<path d="M252.88 383.01L212.14 378.97V370.28H252.88V383.01Z" fill="#A4EAFF"/>
<path d="M282.37 397.86H182.65C179.5 397.86 176.95 400.41 176.95 403.56V409.26H288.07V403.56C288.07 400.41 285.52 397.86 282.37 397.86Z" fill="white"/>
<path d="M359.98 197.96H105.04C102.29 197.96 100.07 200.19 100.07 202.93V371.29C100.07 374.03 102.3 376.26 105.04 376.26H359.98C362.73 376.26 364.95 374.03 364.95 371.29V202.93C364.95 200.19 362.72 197.96 359.98 197.96Z" fill="white"/>
<path d="M358.83 356.08H106.19C105.1 356.08 104.21 355.19 104.21 354.1V204.91C104.21 203.82 105.1 202.93 106.19 202.93H358.83C359.92 202.93 360.81 203.82 360.81 204.91V354.1C360.81 355.19 359.92 356.08 358.83 356.08Z" fill="#0A2235"/>
<path d="M237.43 365.52C237.43 368.24 235.23 370.44 232.51 370.44C229.79 370.44 227.59 368.24 227.59 365.52C227.59 362.8 229.79 360.6 232.51 360.6C235.23 360.6 237.43 362.8 237.43 365.52Z" fill="#1B4C6C"/>
<path d="M350.48 348.72H114.12C113.24 348.72 112.52 348 112.52 347.12V211.89C112.52 211.01 113.24 210.29 114.12 210.29H350.48C351.36 210.29 352.08 211.01 352.08 211.89V347.12C352.08 348.01 351.37 348.72 350.48 348.72Z" fill="#B6E6F1"/>
<path d="M302.984 202.524V351.361C302.984 353.426 301.313 355.108 299.247 355.108H171.047C168.981 355.108 167.3 353.437 167.3 351.361V202.524H302.984Z" fill="#A4EAFF"/>
<path d="M175.469 171.425C168.161 171.425 162.244 177.342 162.244 184.65V346.721C162.244 348.787 163.915 350.468 165.992 350.468H294.191C296.257 350.468 297.939 348.797 297.939 346.721V184.66C297.939 177.352 303.866 171.425 311.174 171.425H175.469Z" fill="white"/>
<path d="M311.163 171.425C303.856 171.425 297.928 177.352 297.928 184.66V202.525H324.388V184.66C324.388 177.352 318.471 171.425 311.163 171.425Z" fill="#114C5A"/>
<path d="M254.143 336.641L251.901 331.638C251.61 330.994 250.883 330.672 250.219 330.89L244.998 332.572C244.385 332.769 243.825 332.146 244.084 331.555L252.939 311.676L264.357 316.762L255.503 336.641C255.243 337.233 254.402 337.233 254.143 336.641Z" fill="url(#paint1_linear_11_4053)"/>
<path d="M274.593 336.641L276.835 331.638C277.126 330.994 277.852 330.672 278.517 330.89L283.738 332.572C284.351 332.769 284.911 332.146 284.652 331.555L275.797 311.676L264.378 316.762L273.233 336.641C273.482 337.233 274.323 337.233 274.593 336.641Z" fill="url(#paint2_linear_11_4053)"/>
<path d="M287.402 300.849C287.402 302.157 285.254 303.257 285.036 304.493C284.807 305.769 286.447 307.534 286.022 308.728C285.575 309.942 283.188 310.244 282.544 311.344C281.901 312.455 282.835 314.676 282.015 315.662C281.195 316.648 278.838 316.109 277.852 316.929C276.876 317.749 276.991 320.157 275.88 320.8C274.78 321.434 272.755 320.136 271.541 320.572C270.347 321.008 269.641 323.313 268.364 323.531C267.119 323.749 265.665 321.828 264.368 321.828C263.06 321.828 261.607 323.749 260.371 323.531C259.095 323.302 258.378 320.998 257.195 320.572C255.98 320.126 253.956 321.434 252.856 320.8C251.745 320.157 251.87 317.749 250.884 316.929C249.897 316.109 247.551 316.638 246.721 315.662C245.901 314.686 246.835 312.465 246.192 311.344C245.558 310.244 243.16 309.942 242.714 308.728C242.278 307.534 243.918 305.769 243.7 304.493C243.482 303.247 241.333 302.147 241.333 300.849C241.333 299.541 243.482 298.441 243.7 297.206C243.929 295.929 242.289 294.164 242.714 292.97C243.16 291.756 245.548 291.455 246.192 290.354C246.835 289.244 245.901 287.022 246.721 286.036C247.541 285.05 249.897 285.59 250.884 284.77C251.859 283.95 251.745 281.541 252.856 280.898C253.956 280.265 255.98 281.562 257.195 281.126C258.389 280.69 259.095 278.386 260.371 278.168C261.617 277.95 263.07 279.87 264.368 279.87C265.665 279.87 267.129 277.95 268.364 278.168C269.641 278.396 270.357 280.7 271.541 281.126C272.755 281.572 274.78 280.265 275.88 280.898C276.991 281.541 276.876 283.95 277.852 284.77C278.838 285.59 281.184 285.06 282.015 286.036C282.835 287.012 281.901 289.233 282.544 290.354C283.177 291.455 285.575 291.756 286.022 292.97C286.458 294.164 284.818 295.929 285.036 297.206C285.254 298.441 287.402 299.552 287.402 300.849Z" fill="url(#paint3_linear_11_4053)"/>
<path d="M264.368 317.821C273.741 317.821 281.34 310.223 281.34 300.849C281.34 291.476 273.741 283.877 264.368 283.877C254.994 283.877 247.396 291.476 247.396 300.849C247.396 310.223 254.994 317.821 264.368 317.821Z" fill="url(#paint4_linear_11_4053)"/>
<path d="M264.368 316.607C273.07 316.607 280.125 309.552 280.125 300.849C280.125 292.147 273.07 285.092 264.368 285.092C255.665 285.092 248.61 292.147 248.61 300.849C248.61 309.552 255.665 316.607 264.368 316.607Z" fill="url(#paint5_linear_11_4053)"/>
<path d="M264.129 307.555L258.763 310.378C258.389 310.576 257.953 310.254 258.026 309.839L259.053 303.859C259.084 303.693 259.022 303.527 258.908 303.413L254.569 299.178C254.268 298.887 254.434 298.368 254.849 298.316L260.849 297.444C261.015 297.424 261.16 297.32 261.233 297.164L263.922 291.725C264.109 291.351 264.648 291.351 264.835 291.725L267.524 297.164C267.596 297.309 267.742 297.413 267.908 297.444L273.908 298.316C274.323 298.379 274.489 298.887 274.188 299.178L269.849 303.413C269.724 303.527 269.672 303.693 269.704 303.859L270.731 309.839C270.804 310.254 270.368 310.565 269.994 310.378L264.628 307.555C264.451 307.482 264.275 307.482 264.129 307.555Z" fill="url(#paint6_linear_11_4053)"/>
<path d="M249.295 209.355H210.877C210.617 209.355 210.41 209.148 210.41 208.888V206.48C210.41 206.22 210.617 206.013 210.877 206.013H249.295C249.555 206.013 249.762 206.22 249.762 206.48V208.888C249.762 209.148 249.555 209.355 249.295 209.355Z" fill="#BDEBF9"/>
<path d="M269.932 222.809H190.251C189.878 222.809 189.587 222.508 189.587 222.144V220.141C189.587 219.767 189.888 219.477 190.251 219.477H269.932C270.306 219.477 270.597 219.778 270.597 220.141V222.144C270.597 222.508 270.296 222.809 269.932 222.809Z" fill="#BDEBF9"/>
<path d="M269.932 232.67H190.251C189.878 232.67 189.587 232.369 189.587 232.006V230.002C189.587 229.629 189.888 229.338 190.251 229.338H269.932C270.306 229.338 270.597 229.639 270.597 230.002V232.006C270.597 232.369 270.296 232.67 269.932 232.67Z" fill="#BDEBF9"/>
<path d="M269.932 242.531H190.251C189.878 242.531 189.587 242.23 189.587 241.867V239.864C189.587 239.49 189.888 239.199 190.251 239.199H269.932C270.306 239.199 270.597 239.5 270.597 239.864V241.867C270.597 242.23 270.296 242.531 269.932 242.531Z" fill="#BDEBF9"/>
<path d="M269.932 252.393H190.251C189.878 252.393 189.587 252.092 189.587 251.728V249.725C189.587 249.351 189.888 249.061 190.251 249.061H269.932C270.306 249.061 270.597 249.362 270.597 249.725V251.728C270.597 252.092 270.296 252.393 269.932 252.393Z" fill="#BDEBF9"/>
<path d="M269.932 262.254H190.251C189.878 262.254 189.587 261.953 189.587 261.59V259.586C189.587 259.213 189.888 258.922 190.251 258.922H269.932C270.306 258.922 270.597 259.223 270.597 259.586V261.59C270.597 261.953 270.296 262.254 269.932 262.254Z" fill="#BDEBF9"/>
<path d="M269.932 272.106H190.251C189.878 272.106 189.587 271.805 189.587 271.441V269.438C189.587 269.064 189.888 268.773 190.251 268.773H269.932C270.306 268.773 270.597 269.074 270.597 269.438V271.441C270.597 271.815 270.296 272.106 269.932 272.106Z" fill="#BDEBF9"/>
<path d="M229.614 291.829H190.054C189.794 291.829 189.576 291.622 189.576 291.352V288.954C189.576 288.695 189.784 288.477 190.054 288.477H229.614C229.873 288.477 230.091 288.684 230.091 288.954V291.352C230.091 291.622 229.873 291.829 229.614 291.829Z" fill="#BDEBF9"/>
<path d="M229.614 281.968H190.054C189.794 281.968 189.576 281.761 189.576 281.491V279.093C189.576 278.833 189.784 278.615 190.054 278.615H229.614C229.873 278.615 230.091 278.823 230.091 279.093V281.491C230.091 281.761 229.873 281.968 229.614 281.968Z" fill="#BDEBF9"/>
<path d="M229.614 311.531H190.054C189.794 311.531 189.576 311.323 189.576 311.053V308.655C189.576 308.396 189.784 308.178 190.054 308.178H229.614C229.873 308.178 230.091 308.385 230.091 308.655V311.053C230.091 311.313 229.873 311.531 229.614 311.531Z" fill="#BDEBF9"/>
<path d="M229.614 301.669H190.054C189.794 301.669 189.576 301.462 189.576 301.192V298.794C189.576 298.534 189.784 298.316 190.054 298.316H229.614C229.873 298.316 230.091 298.524 230.091 298.794V301.192C230.091 301.462 229.873 301.669 229.614 301.669Z" fill="#BDEBF9"/>
<path d="M229.614 331.244H190.054C189.794 331.244 189.576 331.036 189.576 330.766V328.368C189.576 328.109 189.784 327.891 190.054 327.891H229.614C229.873 327.891 230.091 328.098 230.091 328.368V330.766C230.091 331.036 229.873 331.244 229.614 331.244Z" fill="#BDEBF9"/>
<path d="M229.614 321.392H190.054C189.794 321.392 189.576 321.184 189.576 320.914V318.517C189.576 318.257 189.784 318.039 190.054 318.039H229.614C229.873 318.039 230.091 318.247 230.091 318.517V320.914C230.091 321.174 229.873 321.392 229.614 321.392Z" fill="#BDEBF9"/>
<path d="M193.188 201.854C192.524 201.854 191.972 201.701 191.531 201.395C191.091 201.089 190.759 200.643 190.536 200.057C190.318 199.466 190.209 198.753 190.209 197.918V191.952C190.209 191.325 190.261 190.759 190.365 190.256C190.468 189.753 190.637 189.323 190.87 188.965C191.104 188.607 191.415 188.333 191.804 188.141C192.193 187.949 192.672 187.853 193.243 187.853C193.761 187.853 194.202 187.939 194.565 188.11C194.933 188.276 195.231 188.517 195.459 188.833C195.693 189.149 195.861 189.533 195.965 189.984C196.074 190.43 196.128 190.933 196.128 191.493V193.376H194.114V191.625C194.114 190.951 194.057 190.456 193.943 190.14C193.829 189.818 193.6 189.657 193.258 189.657C192.88 189.657 192.626 189.831 192.496 190.179C192.371 190.521 192.309 191.001 192.309 191.618V198.011C192.309 198.488 192.335 198.88 192.387 199.186C192.444 199.487 192.537 199.71 192.667 199.855C192.797 199.995 192.978 200.065 193.212 200.065C193.564 200.065 193.803 199.899 193.927 199.567C194.052 199.235 194.114 198.709 194.114 197.988V196.028H196.159V197.965C196.159 198.831 196.058 199.554 195.856 200.135C195.654 200.71 195.332 201.141 194.892 201.426C194.456 201.711 193.888 201.854 193.188 201.854ZM197.925 201.698V188.009H202.514V189.805H200.01V193.788H202.39V195.546H200.01V199.901H202.608V201.698H197.925ZM204.148 201.698V188.009H207.594C208.309 188.009 208.843 188.149 209.196 188.429C209.548 188.709 209.779 189.118 209.888 189.657C210.002 190.197 210.059 190.855 210.059 191.633C210.059 192.437 209.976 193.07 209.81 193.531C209.65 193.987 209.318 194.293 208.815 194.449C209.053 194.49 209.253 194.589 209.414 194.744C209.574 194.895 209.704 195.118 209.803 195.413C209.901 195.704 209.971 196.08 210.013 196.541C210.059 196.998 210.083 197.558 210.083 198.221C210.083 198.273 210.083 198.418 210.083 198.657C210.083 198.895 210.083 199.178 210.083 199.505C210.088 199.826 210.093 200.148 210.098 200.469C210.103 200.791 210.111 201.066 210.121 201.294C210.132 201.522 210.145 201.657 210.16 201.698H208.076C208.06 201.672 208.047 201.54 208.037 201.302C208.032 201.058 208.024 200.749 208.014 200.376C208.008 200.003 208.003 199.601 207.998 199.17C207.998 198.74 207.998 198.317 207.998 197.902C207.998 197.482 207.998 197.112 207.998 196.79C207.998 196.381 207.967 196.072 207.905 195.865C207.848 195.652 207.739 195.504 207.578 195.421C207.422 195.338 207.197 195.289 206.901 195.273L206.232 195.235V201.698H204.148ZM206.24 193.617H207.072C207.326 193.617 207.518 193.56 207.648 193.446C207.783 193.331 207.874 193.121 207.92 192.815C207.972 192.51 207.998 192.069 207.998 191.493V191.408C207.998 190.925 207.975 190.555 207.928 190.295C207.881 190.036 207.783 189.857 207.632 189.759C207.487 189.66 207.259 189.611 206.948 189.611H206.24V193.617ZM212.579 201.698V189.813H210.977V188.009H216.196V189.813H214.656V201.698H212.579ZM217.417 201.698V188.009H219.502V201.698H217.417ZM221.602 201.698V188.009H226.3V189.821H223.687V193.461H226.114V195.281H223.687V201.698H221.602ZM227.809 201.698V188.009H229.894V201.698H227.809ZM234.802 201.854C234.138 201.854 233.586 201.701 233.145 201.395C232.704 201.089 232.372 200.643 232.149 200.057C231.932 199.466 231.823 198.753 231.823 197.918V191.952C231.823 191.325 231.875 190.759 231.978 190.256C232.082 189.753 232.251 189.323 232.484 188.965C232.717 188.607 233.028 188.333 233.417 188.141C233.806 187.949 234.286 187.853 234.856 187.853C235.375 187.853 235.816 187.939 236.179 188.11C236.547 188.276 236.845 188.517 237.073 188.833C237.306 189.149 237.475 189.533 237.579 189.984C237.688 190.43 237.742 190.933 237.742 191.493V193.376H235.727V191.625C235.727 190.951 235.67 190.456 235.556 190.14C235.442 189.818 235.214 189.657 234.872 189.657C234.493 189.657 234.239 189.831 234.11 190.179C233.985 190.521 233.923 191.001 233.923 191.618V198.011C233.923 198.488 233.949 198.88 234.001 199.186C234.058 199.487 234.151 199.71 234.281 199.855C234.41 199.995 234.592 200.065 234.825 200.065C235.178 200.065 235.416 199.899 235.541 199.567C235.665 199.235 235.727 198.709 235.727 197.988V196.028H237.773V197.965C237.773 198.831 237.672 199.554 237.47 200.135C237.268 200.71 236.946 201.141 236.505 201.426C236.07 201.711 235.502 201.854 234.802 201.854ZM238.73 201.698L240.682 188.009H243.436L245.513 201.698H243.568L243.241 199.256H241.032L240.737 201.698H238.73ZM241.235 197.584H243.024L242.106 190.708H242.075L241.235 197.584ZM247.084 201.698V189.813H245.481V188.009H250.701V189.813H249.161V201.698H247.084ZM251.922 201.698V188.009H254.006V201.698H251.922ZM258.984 201.854C258.274 201.854 257.693 201.703 257.242 201.403C256.796 201.102 256.467 200.656 256.254 200.065C256.042 199.474 255.935 198.743 255.935 197.871V191.61C255.935 190.822 256.039 190.148 256.247 189.587C256.454 189.027 256.783 188.597 257.234 188.296C257.686 187.996 258.277 187.845 259.008 187.845C259.557 187.845 260.022 187.931 260.4 188.102C260.779 188.273 261.085 188.522 261.318 188.849C261.551 189.17 261.72 189.564 261.824 190.031C261.932 190.492 261.987 191.019 261.987 191.61V197.871C261.987 198.743 261.883 199.474 261.676 200.065C261.474 200.656 261.152 201.102 260.711 201.403C260.27 201.703 259.695 201.854 258.984 201.854ZM258.984 200.049C259.244 200.049 259.438 199.971 259.568 199.816C259.697 199.66 259.783 199.424 259.825 199.108C259.871 198.787 259.895 198.382 259.895 197.895V191.517C259.895 190.92 259.838 190.461 259.723 190.14C259.615 189.813 259.376 189.65 259.008 189.65C258.629 189.65 258.373 189.808 258.238 190.124C258.103 190.435 258.036 190.897 258.036 191.509V197.895C258.036 198.392 258.056 198.802 258.098 199.124C258.144 199.44 258.235 199.673 258.37 199.824C258.51 199.974 258.715 200.049 258.984 200.049ZM263.885 201.698V188.009H265.518L268.42 196.222L268.272 192.489V188.009H270.146V201.698H268.668L265.689 193.197L265.806 196.79V201.698H263.885Z" fill="#114C5A"/>
<path d="M115.678 381.383H106.844H98.01C98.01 381.383 77.5811 383.833 77.5811 389.957H106.844H136.107C136.096 383.833 115.678 381.383 115.678 381.383Z" fill="url(#paint7_linear_11_4053)"/>
<path d="M141.131 394.877H72.5366C72.5366 392.158 74.7373 389.957 77.457 389.957H136.221C138.931 389.957 141.131 392.158 141.131 394.877Z" fill="url(#paint8_linear_11_4053)"/>
<path d="M171.701 293.657C169.189 287.958 164.103 284.055 157.397 282.654C155.964 282.353 154.594 282.228 153.276 282.238C151.532 282.259 150.12 280.837 150.068 279.093V279.072C150.016 277.308 148.574 275.906 146.819 275.906H106.833H66.8579C65.0932 275.906 63.6503 277.308 63.6088 279.072V279.093C63.5569 280.827 62.1451 282.249 60.4116 282.238C59.1037 282.228 57.7438 282.353 56.3217 282.654C49.6158 284.055 44.5294 287.958 42.0173 293.657C39.2249 299.979 40.0554 307.733 44.3114 314.937C49.8027 324.248 60.8164 328.577 69.671 332.065C75.0897 334.193 80.2073 336.217 81.837 338.657C83.363 340.94 83.6329 343.016 82.6363 344.667C81.6294 346.317 79.4184 347.304 77.2385 347.065C76.8855 347.023 76.4495 346.94 75.9928 346.774C75.0482 346.172 74.8613 344.989 75.588 343.141C76.3042 341.283 75.6295 338.044 71.6537 338.636C68.3216 339.134 68.5707 342.321 68.7679 343.452C68.7783 343.577 68.851 343.857 68.851 343.857C70.1589 347.76 73.0759 350.241 76.8336 350.667C77.1866 350.708 77.5499 350.729 77.9028 350.729C81.1104 350.729 84.1727 349.131 85.7401 346.556C86.3941 345.487 86.747 344.304 86.8197 343.068C86.8716 342.269 87.7851 341.854 88.3768 342.404C94.356 347.895 99.4321 352.099 100.532 357.746C103.46 372.674 98.0203 381.393 98.0203 381.393H106.854H115.688C115.688 381.393 110.249 372.674 113.176 357.746C114.287 352.089 119.373 347.875 125.373 342.362C125.965 341.823 126.889 342.228 126.93 343.037C127.003 344.283 127.356 345.466 128.02 346.546C129.588 349.12 132.65 350.719 135.857 350.719C136.21 350.719 136.563 350.698 136.927 350.657C140.674 350.241 143.57 347.781 144.888 343.909C144.899 343.888 144.909 343.847 144.909 343.847C144.909 343.847 146.186 339.228 142.117 338.615C138.141 338.023 137.466 341.262 138.183 343.12C138.899 344.968 138.712 346.151 137.767 346.753C137.311 346.92 136.875 347.003 136.522 347.044C134.342 347.283 132.131 346.307 131.124 344.646C130.117 342.996 130.397 340.92 131.923 338.636C133.553 336.196 138.671 334.183 144.089 332.044C152.944 328.556 163.958 324.228 169.449 314.916C173.663 307.723 174.494 299.968 171.701 293.657ZM75.8786 330.664C74.3423 330.01 72.6918 329.356 70.979 328.681C62.6434 325.401 52.2733 321.321 47.4255 313.089C43.782 306.903 43.0138 300.363 45.3287 295.131C47.3633 290.532 51.5259 287.377 57.0587 286.225L57.1314 286.214C60.4635 285.529 63.6815 287.896 63.9618 291.29C64.7195 300.404 66.8164 312.155 72.1935 322.525C73.5638 325.172 75.0689 327.56 76.6468 329.74C77.0101 330.238 76.4703 330.913 75.8786 330.664ZM166.283 313.079C161.425 321.311 151.054 325.39 142.729 328.671C140.996 329.356 139.324 330.01 137.778 330.674C137.186 330.923 136.646 330.248 137.02 329.729C138.598 327.549 140.113 325.152 141.484 322.494C146.861 312.124 148.958 300.373 149.715 291.259C149.996 287.865 153.214 285.498 156.546 286.183L156.66 286.204C162.193 287.356 166.355 290.522 168.39 295.11C170.694 300.352 169.926 306.903 166.283 313.079Z" fill="url(#paint9_linear_11_4053)"/>
<path d="M90.8579 279.924H70.4913C69.557 279.924 68.7889 280.661 68.7577 281.595C68.4671 289.92 68.9965 327.28 100.2 346.401C100.595 346.64 106.854 349.909 106.854 349.909V279.924H90.8579Z" fill="url(#paint10_linear_11_4053)"/>
<path d="M145.75 400.39H68.3428V398.179C68.3428 396.352 69.8168 394.878 71.6438 394.878H142.439C144.266 394.878 145.74 396.352 145.74 398.179V400.39H145.75Z" fill="url(#paint11_linear_11_4053)"/>
<path d="M416.173 242.533H339.284C336.596 242.533 334.416 240.353 334.416 237.664V155.668C334.416 152.98 336.596 150.8 339.284 150.8H416.173C418.862 150.8 421.042 152.98 421.042 155.668V237.664C421.052 240.353 418.872 242.533 416.173 242.533Z" fill="white"/>
<path d="M375.886 207.8L340.406 192.789C339.253 192.301 339.253 190.672 340.406 190.184L375.886 175.174C377.07 174.675 378.398 174.675 379.582 175.174L415.063 190.184C416.215 190.672 416.215 192.301 415.063 192.789L379.582 207.8C378.398 208.298 377.07 208.298 375.886 207.8Z" fill="#0A2235"/>
<path d="M377.734 189.26C367.821 189.26 359.776 190.433 359.776 191.865V212.709C359.776 214.152 367.821 215.315 377.734 215.315C387.648 215.315 395.693 214.142 395.693 212.709V191.865C395.693 190.422 387.648 189.26 377.734 189.26Z" fill="url(#paint12_linear_11_4053)"/>
<path d="M394.083 211.932C394.083 213.24 386.765 214.309 377.734 214.309C368.703 214.309 361.385 213.24 361.385 211.932C361.385 210.624 368.703 209.555 377.734 209.555C386.765 209.555 394.083 210.624 394.083 211.932Z" fill="url(#paint13_linear_11_4053)"/>
<path d="M399.004 183.384V215.325" stroke="url(#paint14_linear_11_4053)" stroke-width="1.10044" stroke-miterlimit="10" stroke-linecap="round"/>
<path d="M401.308 225.446H396.72V217.619C396.72 216.353 397.748 215.325 399.014 215.325C400.281 215.325 401.308 216.353 401.308 217.619V225.446V225.446Z" fill="url(#paint15_linear_11_4053)"/>
<path d="M157.065 403.607V417.537H158.248C159.13 417.537 159.847 418.254 159.847 419.136C159.847 420.018 159.13 420.735 158.248 420.735H59.415C55.8129 420.735 52.896 417.818 52.896 414.216V406.908C52.896 403.306 55.8129 400.389 59.415 400.389H158.248C159.13 400.389 159.847 401.105 159.847 401.987V401.998C159.847 402.88 159.13 403.596 158.248 403.596H157.065V403.607Z" fill="url(#paint16_linear_11_4053)"/>
<path d="M157.064 417.527H59.7053C57.9926 417.527 56.6016 416.136 56.6016 414.423V406.71C56.6016 404.997 57.9926 403.606 59.7053 403.606H157.064V417.527Z" fill="white"/>
<path d="M56.5913 415.169H157.065" stroke="#E8E8E8" stroke-width="0.737434" stroke-miterlimit="10"/>
<path d="M56.5913 416.478H157.065" stroke="#E8E8E8" stroke-width="0.737434" stroke-miterlimit="10"/>
<path d="M56.5913 404.644H157.065" stroke="#E8E8E8" stroke-width="0.737434" stroke-miterlimit="10"/>
<path d="M56.5913 405.961H157.065" stroke="#E8E8E8" stroke-width="0.737434" stroke-miterlimit="10"/>
<path d="M56.5913 407.28H157.065" stroke="#E8E8E8" stroke-width="0.737434" stroke-miterlimit="10"/>
<path d="M56.5913 408.588H157.065" stroke="#E8E8E8" stroke-width="0.737434" stroke-miterlimit="10"/>
<path d="M56.5913 409.907H157.065" stroke="#E8E8E8" stroke-width="0.737434" stroke-miterlimit="10"/>
<path d="M56.5913 411.225H157.065" stroke="#E8E8E8" stroke-width="0.737434" stroke-miterlimit="10"/>
<path d="M56.5913 412.532H157.065" stroke="#E8E8E8" stroke-width="0.737434" stroke-miterlimit="10"/>
<path d="M56.5913 413.852H157.065" stroke="#E8E8E8" stroke-width="0.737434" stroke-miterlimit="10"/>
<g opacity="0.5">
<path d="M29 306.341H34.9792" stroke="#0A2235" stroke-width="2.07611" stroke-miterlimit="10" stroke-linecap="round"/>
<path d="M31.9893 303.352V309.32" stroke="#0A2235" stroke-width="2.07611" stroke-miterlimit="10" stroke-linecap="round"/>
</g>
<g opacity="0.5">
<path d="M446.298 356.812H452.277" stroke="#0A2235" stroke-width="2.07611" stroke-miterlimit="10" stroke-linecap="round"/>
<path d="M449.287 353.832V359.801" stroke="#0A2235" stroke-width="2.07611" stroke-miterlimit="10" stroke-linecap="round"/>
</g>
<g opacity="0.5">
<path d="M274.542 160.371H280.51" stroke="#0A2235" stroke-width="2.07611" stroke-miterlimit="10" stroke-linecap="round"/>
<path d="M277.521 157.392V163.36" stroke="#0A2235" stroke-width="2.07611" stroke-miterlimit="10" stroke-linecap="round"/>
</g>
<g opacity="0.5">
<path d="M156.868 114.935H162.836" stroke="#0A2235" stroke-width="2.07611" stroke-miterlimit="10" stroke-linecap="round"/>
<path d="M159.857 111.945V117.914" stroke="#0A2235" stroke-width="2.07611" stroke-miterlimit="10" stroke-linecap="round"/>
</g>
<path d="M133.563 145.495L104.632 165.083L75.6914 145.495H133.563Z" fill="#E1EFF9"/>
<path d="M133.563 145.494L106.802 118.204C105.608 116.989 103.646 116.989 102.452 118.204L75.6914 145.494H133.563Z" fill="#E1EFF9"/>
<path d="M128.809 125.573H80.4458V173.396H128.809V125.573Z" fill="#103950"/>
<path d="M128.809 125.573H80.4458V131.978H128.809V125.573Z" fill="#114C5A"/>
<path d="M85.688 128.77C85.688 129.517 85.0755 130.13 84.3281 130.13C83.5807 130.13 82.9683 129.517 82.9683 128.77C82.9683 128.023 83.5807 127.41 84.3281 127.41C85.0755 127.41 85.688 128.023 85.688 128.77Z" fill="white"/>
<path d="M90.1416 128.77C90.1416 129.517 89.5291 130.13 88.7817 130.13C88.0343 130.13 87.4219 129.517 87.4219 128.77C87.4219 128.023 88.0343 127.41 88.7817 127.41C89.5395 127.41 90.1416 128.023 90.1416 128.77Z" fill="white"/>
<path d="M94.605 128.77C94.605 129.517 93.9925 130.13 93.2451 130.13C92.4977 130.13 91.8853 129.517 91.8853 128.77C91.8853 128.023 92.4977 127.41 93.2451 127.41C93.9925 127.41 94.605 128.023 94.605 128.77Z" fill="white"/>
<path d="M95.2277 148.255H87.8264L86.3627 151.681H83.5288L90.1827 136.878H92.8921L99.5667 151.681H96.6913L95.2277 148.255ZM94.3246 146.096L91.5322 139.629L88.7606 146.096H94.3246Z" fill="white"/>
<path d="M124.978 136.618H103.055V137.999H124.978V136.618Z" fill="white"/>
<path d="M124.978 140.345H103.055V141.725H124.978V140.345Z" fill="white"/>
<path d="M124.978 144.082H103.055V145.463H124.978V144.082Z" fill="white"/>
<path d="M124.978 147.809H103.055V149.189H124.978V147.809Z" fill="white"/>
<path d="M124.978 151.535H103.055V152.916H124.978V151.535Z" fill="white"/>
<path d="M124.989 155.262H84.3281V156.642H124.989V155.262Z" fill="white"/>
<path d="M124.989 158.988H84.3281V160.369H124.989V158.988Z" fill="white"/>
<path d="M124.989 162.726H84.3281V164.106H124.989V162.726Z" fill="white"/>
<path d="M124.989 166.452H84.3281V167.833H124.989V166.452Z" fill="white"/>
<path d="M133.563 145.495V181.183C133.563 182.242 133.085 183.197 132.338 183.83C131.725 184.349 130.947 184.661 130.096 184.661H79.1791C77.2587 184.661 75.7017 183.104 75.7017 181.194V145.495L104.632 165.073H104.643L133.563 145.495Z" fill="white"/>
<path opacity="0.25" d="M133.563 145.495V181.183C133.563 182.242 133.086 183.197 132.338 183.83L104.643 165.083L133.563 145.495Z" fill="#BBC3FA"/>
<path d="M277.738 88.3598H269.33C268.79 88.3598 268.354 87.9238 268.354 87.384V78.9758C268.354 78.436 268.79 78 269.33 78H277.738C278.278 78 278.714 78.436 278.714 78.9758V87.384C278.714 87.9238 278.278 88.3598 277.738 88.3598Z" fill="white"/>
<path d="M291.607 88.3598H283.198C282.659 88.3598 282.223 87.9238 282.223 87.384V78.9758C282.223 78.436 282.659 78 283.198 78H291.607C292.146 78 292.582 78.436 292.582 78.9758V87.384C292.593 87.9238 292.146 88.3598 291.607 88.3598Z" fill="white"/>
<path d="M305.486 88.3598H297.077C296.538 88.3598 296.102 87.9238 296.102 87.384V78.9758C296.102 78.436 296.538 78 297.077 78H305.486C306.025 78 306.461 78.436 306.461 78.9758V87.384C306.461 87.9238 306.025 88.3598 305.486 88.3598Z" fill="white"/>
<path d="M212.549 132.644C212.549 124.174 202.262 117.302 189.577 117.302C176.892 117.302 166.604 124.174 166.604 132.644C166.604 141.115 176.892 147.987 189.577 147.987C191.767 147.987 193.885 147.779 195.888 147.395C196.407 147.302 196.936 147.405 197.352 147.727L206.102 154.256C206.58 154.609 207.234 154.142 207.047 153.582L204.597 145.9C204.338 145.101 204.66 144.229 205.376 143.772C209.798 140.98 212.549 137.025 212.549 132.644Z" fill="white"/>
<path d="M181.49 132.666C181.49 133.849 180.535 134.804 179.352 134.804C178.168 134.804 177.213 133.849 177.213 132.666C177.213 131.482 178.168 130.527 179.352 130.527C180.535 130.527 181.49 131.493 181.49 132.666Z" fill="#0A2235"/>
<path d="M191.715 132.666C191.715 133.849 190.76 134.804 189.577 134.804C188.393 134.804 187.438 133.849 187.438 132.666C187.438 131.482 188.393 130.527 189.577 130.527C190.76 130.527 191.715 131.493 191.715 132.666Z" fill="#0A2235"/>
<path d="M201.94 132.666C201.94 133.849 200.985 134.804 199.801 134.804C198.618 134.804 197.663 133.849 197.663 132.666C197.663 131.482 198.618 130.527 199.801 130.527C200.985 130.527 201.94 131.493 201.94 132.666Z" fill="#0A2235"/>
<path d="M186.639 83.1791C186.639 85.2345 184.978 86.8954 182.923 86.8954C180.867 86.8954 179.207 85.2345 179.207 83.1791C179.207 81.1238 180.867 79.4629 182.923 79.4629C184.978 79.4629 186.639 81.1238 186.639 83.1791Z" fill="white"/>
<path d="M199.957 83.1791C199.957 85.2345 198.296 86.8954 196.241 86.8954C194.186 86.8954 192.525 85.2345 192.525 83.1791C192.525 81.1238 194.186 79.4629 196.241 79.4629C198.296 79.4629 199.957 81.1238 199.957 83.1791Z" fill="white"/>
<path d="M85.6308 223.229C89.9968 218.864 89.9968 211.785 85.6308 207.419C81.2649 203.053 74.1863 203.053 69.8203 207.419C65.4543 211.785 65.4544 218.864 69.8203 223.229C74.1863 227.595 81.2649 227.595 85.6308 223.229Z" stroke="white" stroke-width="1.65061" stroke-miterlimit="10"/>
<path d="M72.0073 215.895C72.0073 215.895 76.035 219.923 75.8896 219.778C75.7547 219.643 84.3498 211.317 84.3498 211.317" stroke="white" stroke-width="1.65061" stroke-miterlimit="10" stroke-linecap="round" stroke-linejoin="round"/>
<path d="M322.832 125.577C327.419 121.444 327.787 114.375 323.653 109.788C319.52 105.201 312.451 104.833 307.864 108.966C303.277 113.1 302.909 120.169 307.042 124.756C311.176 129.343 318.245 129.711 322.832 125.577Z" stroke="white" stroke-width="1.65061" stroke-miterlimit="10"/>
<path d="M309.639 117.861C309.639 117.861 313.666 121.889 313.521 121.743C313.386 121.608 321.981 113.283 321.981 113.283" stroke="white" stroke-width="1.65061" stroke-miterlimit="10" stroke-linecap="round" stroke-linejoin="round"/>
<path d="M31.9897 250.722H41.3322" stroke="white" stroke-width="1.65061" stroke-miterlimit="10" stroke-linecap="round" stroke-linejoin="round"/>
<path d="M36.6611 246.051V255.393" stroke="white" stroke-width="1.65061" stroke-miterlimit="10" stroke-linecap="round" stroke-linejoin="round"/>
<path d="M462.657 272.82H472" stroke="white" stroke-width="1.65061" stroke-miterlimit="10" stroke-linecap="round" stroke-linejoin="round"/>
<path d="M467.328 268.149V277.492" stroke="white" stroke-width="1.65061" stroke-miterlimit="10" stroke-linecap="round" stroke-linejoin="round"/>
<path d="M132.224 103.765H141.567" stroke="white" stroke-width="1.65061" stroke-miterlimit="10" stroke-linecap="round" stroke-linejoin="round"/>
<path d="M136.896 99.0938V108.436" stroke="white" stroke-width="1.65061" stroke-miterlimit="10" stroke-linecap="round" stroke-linejoin="round"/>
<path d="M383.091 126.342H392.433" stroke="white" stroke-width="1.65061" stroke-miterlimit="10" stroke-linecap="round" stroke-linejoin="round"/>
<path d="M387.762 121.671V131.013" stroke="white" stroke-width="1.65061" stroke-miterlimit="10" stroke-linecap="round" stroke-linejoin="round"/>
<path d="M296.6 146.096H305.943" stroke="white" stroke-width="1.65061" stroke-miterlimit="10" stroke-linecap="round" stroke-linejoin="round"/>
<path d="M301.271 141.425V150.767" stroke="white" stroke-width="1.65061" stroke-miterlimit="10" stroke-linecap="round" stroke-linejoin="round"/>
<path d="M389.413 260.946H398.755" stroke="white" stroke-width="1.65061" stroke-miterlimit="10" stroke-linecap="round" stroke-linejoin="round"/>
<path d="M394.084 256.275V265.618" stroke="white" stroke-width="1.65061" stroke-miterlimit="10" stroke-linecap="round" stroke-linejoin="round"/>
<path d="M66.5464 376.627H75.8889" stroke="white" stroke-width="1.65061" stroke-miterlimit="10" stroke-linecap="round" stroke-linejoin="round"/>
<path d="M71.2178 371.956V381.299" stroke="white" stroke-width="1.65061" stroke-miterlimit="10" stroke-linecap="round" stroke-linejoin="round"/>
<path d="M324.752 408.786H316.344C315.804 408.786 315.368 408.35 315.368 407.81V399.402C315.368 398.862 315.804 398.426 316.344 398.426H324.752C325.292 398.426 325.728 398.862 325.728 399.402V407.81C325.728 408.35 325.292 408.786 324.752 408.786Z" fill="white"/>
<path d="M338.62 408.786H330.212C329.672 408.786 329.236 408.35 329.236 407.81V399.402C329.236 398.862 329.672 398.426 330.212 398.426H338.62C339.16 398.426 339.596 398.862 339.596 399.402V407.81C339.606 408.35 339.171 408.786 338.62 408.786Z" fill="white"/>
<path d="M352.499 408.786H344.091C343.551 408.786 343.115 408.35 343.115 407.81V399.402C343.115 398.862 343.551 398.426 344.091 398.426H352.499C353.039 398.426 353.475 398.862 353.475 399.402V407.81C353.475 408.35 353.039 408.786 352.499 408.786Z" fill="white"/>
<path d="M328.79 315.922L319.427 306.569L328.79 297.206" stroke="white" stroke-width="3.11416" stroke-miterlimit="10" stroke-linecap="round" stroke-linejoin="round"/>
<path d="M319.427 306.568H343.105" stroke="white" stroke-width="3.11416" stroke-miterlimit="10" stroke-linecap="round" stroke-linejoin="round"/>
<path d="M250.251 138.819L244.085 132.663L250.251 126.508" stroke="white" stroke-width="2.04912" stroke-miterlimit="10" stroke-linecap="round" stroke-linejoin="round"/>
<path d="M244.085 132.663H259.666" stroke="white" stroke-width="2.04912" stroke-miterlimit="10" stroke-linecap="round" stroke-linejoin="round"/>
<path d="M73.5118 163.412H71.3008" stroke="white" stroke-width="1.10366" stroke-miterlimit="10" stroke-linecap="round"/>
<path d="M66.8163 163.412H56.7887C52.979 163.412 49.896 166.495 49.896 170.305V252.01C49.896 255.82 52.979 258.903 56.7887 258.903H93.7123" stroke="white" stroke-width="1.10366" stroke-miterlimit="10" stroke-linecap="round" stroke-dasharray="4.49 4.49"/>
<path d="M95.9546 258.913H98.1656" stroke="white" stroke-width="1.10366" stroke-miterlimit="10" stroke-linecap="round"/>
<path d="M427.271 191.937H429.482" stroke="white" stroke-width="1.10366" stroke-miterlimit="10" stroke-linecap="round"/>
<path d="M433.893 192.103C436.769 192.777 438.907 195.352 438.907 198.435V369.952C438.907 373.544 435.99 376.461 432.398 376.461H386.381" stroke="white" stroke-width="1.10366" stroke-miterlimit="10" stroke-linecap="round" stroke-dasharray="4.42 4.42"/>
<path d="M384.171 376.461H381.959" stroke="white" stroke-width="1.10366" stroke-miterlimit="10" stroke-linecap="round"/>
<path d="M205.002 83.1807H264.368" stroke="white" stroke-width="1.10366" stroke-miterlimit="10" stroke-linecap="round" stroke-dasharray="4.41 4.41"/>
<path d="M134.477 226.151H98.7884C98.4458 226.151 98.1655 225.871 98.1655 225.529V223.442C98.1655 223.1 98.4458 222.819 98.7884 222.819H134.477C134.819 222.819 135.099 223.1 135.099 223.442V225.529C135.099 225.871 134.819 226.151 134.477 226.151Z" fill="white"/>
<path d="M134.477 232.671H98.7884C98.4458 232.671 98.1655 232.391 98.1655 232.048V229.962C98.1655 229.619 98.4458 229.339 98.7884 229.339H134.477C134.819 229.339 135.099 229.619 135.099 229.962V232.048C135.099 232.391 134.819 232.671 134.477 232.671Z" fill="white"/>
<path d="M134.477 239.189H98.7884C98.4458 239.189 98.1655 238.908 98.1655 238.566V236.479C98.1655 236.137 98.4458 235.856 98.7884 235.856H134.477C134.819 235.856 135.099 236.137 135.099 236.479V238.566C135.099 238.908 134.819 239.189 134.477 239.189Z" fill="white"/>
<path d="M134.477 245.708H98.7884C98.4458 245.708 98.1655 245.428 98.1655 245.085V242.999C98.1655 242.656 98.4458 242.376 98.7884 242.376H134.477C134.819 242.376 135.099 242.656 135.099 242.999V245.085C135.099 245.428 134.819 245.708 134.477 245.708Z" fill="white"/>
<path d="M371.319 122.034H335.631C335.289 122.034 335.008 121.754 335.008 121.411V119.325C335.008 118.982 335.289 118.702 335.631 118.702H371.319C371.662 118.702 371.942 118.982 371.942 119.325V121.411C371.942 121.754 371.662 122.034 371.319 122.034Z" fill="white"/>
<path d="M371.319 128.554H335.631C335.289 128.554 335.008 128.274 335.008 127.931V125.845C335.008 125.502 335.289 125.222 335.631 125.222H371.319C371.662 125.222 371.942 125.502 371.942 125.845V127.931C371.942 128.274 371.662 128.554 371.319 128.554Z" fill="white"/>
<path d="M371.319 135.071H335.631C335.289 135.071 335.008 134.791 335.008 134.449V132.362C335.008 132.02 335.289 131.739 335.631 131.739H371.319C371.662 131.739 371.942 132.02 371.942 132.362V134.449C371.942 134.791 371.662 135.071 371.319 135.071Z" fill="white"/>
<path d="M371.319 141.581H335.631C335.289 141.581 335.008 141.301 335.008 140.958V138.872C335.008 138.529 335.289 138.249 335.631 138.249H371.319C371.662 138.249 371.942 138.529 371.942 138.872V140.958C371.942 141.301 371.662 141.581 371.319 141.581Z" fill="white"/>
</g>
<defs>
<linearGradient id="paint0_linear_11_4053" x1="250" y1="0" x2="250" y2="500" gradientUnits="userSpaceOnUse">
<stop stop-color="#0B4555"/>
<stop offset="1" stop-color="#69E8E0"/>
</linearGradient>
<linearGradient id="paint1_linear_11_4053" x1="250.409" y1="332.714" x2="255.955" y2="320.267" gradientUnits="userSpaceOnUse">
<stop stop-color="#F5A94D"/>
<stop offset="1" stop-color="#EC7832"/>
</linearGradient>
<linearGradient id="paint2_linear_11_4053" x1="278.319" y1="332.714" x2="272.879" y2="320.505" gradientUnits="userSpaceOnUse">
<stop stop-color="#F5A94D"/>
<stop offset="1" stop-color="#EC7832"/>
</linearGradient>
<linearGradient id="paint3_linear_11_4053" x1="241.325" y1="300.851" x2="287.403" y2="300.851" gradientUnits="userSpaceOnUse">
<stop stop-color="#F5A94D"/>
<stop offset="1" stop-color="#EC7832"/>
</linearGradient>
<linearGradient id="paint4_linear_11_4053" x1="276.008" y1="312.495" x2="248.762" y2="285.249" gradientUnits="userSpaceOnUse">
<stop stop-color="#FAC25B"/>
<stop offset="1" stop-color="#EC7832"/>
</linearGradient>
<linearGradient id="paint5_linear_11_4053" x1="275.18" y1="311.668" x2="249.871" y2="286.359" gradientUnits="userSpaceOnUse">
<stop stop-color="#EC7832"/>
<stop offset="1" stop-color="#FAC25B"/>
</linearGradient>
<linearGradient id="paint6_linear_11_4053" x1="271.181" y1="309.564" x2="257.663" y2="295.574" gradientUnits="userSpaceOnUse">
<stop stop-color="#FBC250"/>
<stop offset="1" stop-color="#FDE1BE"/>
</linearGradient>
<linearGradient id="paint7_linear_11_4053" x1="96.6959" y1="385.672" x2="155.228" y2="385.672" gradientUnits="userSpaceOnUse">
<stop stop-color="#FAC25B"/>
<stop offset="1" stop-color="#EC7832"/>
</linearGradient>
<linearGradient id="paint8_linear_11_4053" x1="80.4183" y1="392.418" x2="149.018" y2="392.418" gradientUnits="userSpaceOnUse">
<stop stop-color="#FAC25B"/>
<stop offset="1" stop-color="#EC7832"/>
</linearGradient>
<linearGradient id="paint9_linear_11_4053" x1="73.2629" y1="328.647" x2="148.578" y2="328.647" gradientUnits="userSpaceOnUse">
<stop stop-color="#FAC25B"/>
<stop offset="1" stop-color="#EC7832"/>
</linearGradient>
<linearGradient id="paint10_linear_11_4053" x1="102.085" y1="314.917" x2="58.6051" y2="314.917" gradientUnits="userSpaceOnUse">
<stop stop-color="#FBC250" stop-opacity="0"/>
<stop offset="1" stop-color="#FDE1BE"/>
</linearGradient>
<linearGradient id="paint11_linear_11_4053" x1="68.342" y1="397.634" x2="145.746" y2="397.634" gradientUnits="userSpaceOnUse">
<stop stop-color="#FAC25B"/>
<stop offset="1" stop-color="#EC7832"/>
</linearGradient>
<linearGradient id="paint12_linear_11_4053" x1="359.777" y1="202.292" x2="395.692" y2="202.292" gradientUnits="userSpaceOnUse">
<stop stop-color="#084975"/>
<stop offset="1" stop-color="#082E66"/>
</linearGradient>
<linearGradient id="paint13_linear_11_4053" x1="361.382" y1="211.936" x2="394.086" y2="211.936" gradientUnits="userSpaceOnUse">
<stop stop-color="#082E66"/>
<stop offset="1" stop-color="#084975"/>
</linearGradient>
<linearGradient id="paint14_linear_11_4053" x1="-nan" y1="-nan" x2="-nan" y2="-nan" gradientUnits="userSpaceOnUse">
<stop stop-color="#EC7832"/>
<stop offset="1" stop-color="#FAC25B"/>
</linearGradient>
<linearGradient id="paint15_linear_11_4053" x1="399.007" y1="225.451" x2="399.007" y2="215.325" gradientUnits="userSpaceOnUse">
<stop stop-color="#EC7832"/>
<stop offset="1" stop-color="#FAC25B"/>
</linearGradient>
<linearGradient id="paint16_linear_11_4053" x1="52.8993" y1="410.562" x2="159.852" y2="410.562" gradientUnits="userSpaceOnUse">
<stop stop-color="#084975"/>
<stop offset="1" stop-color="#082E66"/>
</linearGradient>
<clipPath id="clip0_11_4053">
<rect width="500" height="500" rx="40" fill="white"/>
</clipPath>
</defs>
</svg>
