<svg width="30" height="30" viewBox="0 0 30 30" fill="none" xmlns="http://www.w3.org/2000/svg">
<g clip-path="url(#clip0_714_3141)">
<path d="M14.68 29.36C22.7875 29.36 29.36 22.7875 29.36 14.68C29.36 6.57246 22.7875 0 14.68 0C6.57246 0 0 6.57246 0 14.68C0 22.7875 6.57246 29.36 14.68 29.36Z" fill="#0C0C0C"/>
<path d="M22.593 7.797C21.1375 7.20843 19.5767 6.77482 17.9449 6.52643C17.9152 6.52164 17.8855 6.53361 17.8701 6.55756C17.6695 6.87223 17.4471 7.28268 17.2914 7.60532C15.5362 7.37376 13.79 7.37376 12.0708 7.60532C11.9151 7.27551 11.6847 6.87223 11.483 6.55756C11.4678 6.53439 11.4381 6.52244 11.4083 6.52643C9.77735 6.77397 8.21664 7.20765 6.76026 7.797C6.74766 7.80183 6.73683 7.80979 6.72966 7.82017C3.76923 11.7181 2.95824 15.5203 3.35609 19.2754C3.35789 19.2937 3.36959 19.3113 3.38579 19.3225C5.339 20.5867 7.23099 21.3541 9.08792 21.8629C9.1176 21.8708 9.14912 21.8612 9.16804 21.8397C9.60726 21.311 9.99879 20.7536 10.3345 20.1674C10.3544 20.1331 10.3355 20.0923 10.2949 20.0787C9.67388 19.8711 9.0825 19.618 8.51364 19.3305C8.46862 19.3073 8.46503 19.2506 8.50646 19.2235C8.62612 19.1444 8.74591 19.0621 8.86021 18.9791C8.8809 18.9639 8.90967 18.9607 8.93401 18.9703C12.6712 20.4741 16.7171 20.4741 20.4102 18.9703C20.4345 18.9599 20.4634 18.9631 20.4849 18.9783C20.5993 19.0613 20.719 19.1444 20.8396 19.2235C20.881 19.2506 20.8783 19.3073 20.8333 19.3305C20.2644 19.6235 19.673 19.8711 19.0511 20.078C19.0106 20.0915 18.9926 20.1331 19.0124 20.1674C19.3553 20.7528 19.7468 21.3102 20.178 21.8388C20.196 21.8612 20.2284 21.8708 20.2582 21.8629C22.124 21.3541 24.016 20.5867 25.9693 19.3225C25.9864 19.3113 25.9971 19.2945 25.999 19.2762C26.4751 14.9349 25.2015 11.1639 22.6227 7.82095C22.6164 7.80979 22.6056 7.80183 22.593 7.797ZM10.8926 16.989C9.7675 16.989 8.84038 16.0785 8.84038 14.9605C8.84038 13.8424 9.7495 12.9321 10.8926 12.9321C12.0447 12.9321 12.9628 13.8504 12.9448 14.9605C12.9448 16.0785 12.0357 16.989 10.8926 16.989ZM18.4804 16.989C17.3553 16.989 16.4282 16.0785 16.4282 14.9605C16.4282 13.8424 17.3373 12.9321 18.4804 12.9321C19.6325 12.9321 20.5506 13.8504 20.5326 14.9605C20.5326 16.0785 19.6325 16.989 18.4804 16.989Z" fill="#BBFF00"/>
</g>
<defs>
<clipPath id="clip0_714_3141">
<rect width="29.36" height="29.36" fill="white"/>
</clipPath>
</defs>
</svg>
