<svg width="30" height="30" viewBox="0 0 30 30" fill="none" xmlns="http://www.w3.org/2000/svg">
<g clip-path="url(#clip0_714_3151)">
<path d="M14.68 29.36C22.7875 29.36 29.36 22.7875 29.36 14.68C29.36 6.57246 22.7875 0 14.68 0C6.57246 0 0 6.57246 0 14.68C0 22.7875 6.57246 29.36 14.68 29.36Z" fill="#0C0C0C"/>
<path d="M25.4446 15.0055C25.4446 9.24015 20.7709 4.56641 15.0055 4.56641C9.24018 4.56641 4.56641 9.24015 4.56641 15.0055C4.56641 20.216 8.38385 24.5347 13.3744 25.3178V18.0231H10.7238V15.0055H13.3744V12.7057C13.3744 10.0894 14.9329 8.64421 17.3174 8.64421C18.4595 8.64421 19.6542 8.8481 19.6542 8.8481V11.4171H18.3379C17.0411 11.4171 16.6366 12.2218 16.6366 13.0473V15.0055H19.5318L19.069 18.0231H16.6366V25.3178C21.6272 24.5347 25.4446 20.216 25.4446 15.0055Z" fill="#BBFF00"/>
<path d="M19.0679 18.0234L19.5307 15.0059H16.6354V13.0477C16.6354 12.2221 17.0399 11.4174 18.3367 11.4174H19.653V8.84842C19.653 8.84842 18.4584 8.64453 17.3163 8.64453C14.9317 8.64453 13.3732 10.0897 13.3732 12.706V15.0059H10.7227V18.0234H13.3732V25.3181C13.9047 25.4015 14.4494 25.445 15.0043 25.445C15.5592 25.445 16.104 25.4015 16.6354 25.3181V18.0234H19.0679Z" fill="black"/>
</g>
<defs>
<clipPath id="clip0_714_3151">
<rect width="29.36" height="29.36" fill="white"/>
</clipPath>
</defs>
</svg>
