<svg width="30" height="30" viewBox="0 0 30 30" fill="none" xmlns="http://www.w3.org/2000/svg">
<g clip-path="url(#clip0_714_3144)">
<path d="M14.68 29.36C22.7875 29.36 29.36 22.7875 29.36 14.68C29.36 6.57246 22.7875 0 14.68 0C6.57246 0 0 6.57246 0 14.68C0 22.7875 6.57246 29.36 14.68 29.36Z" fill="#0C0C0C"/>
<path d="M14.6766 11.5242C12.9395 11.5242 11.5219 12.9419 11.5219 14.679C11.5219 16.4161 12.9395 17.8338 14.6766 17.8338C16.4138 17.8338 17.8314 16.4161 17.8314 14.679C17.8314 12.9419 16.4138 11.5242 14.6766 11.5242ZM24.1386 14.679C24.1386 13.3726 24.1504 12.078 24.0771 10.774C24.0037 9.25934 23.6581 7.91511 22.5505 6.80752C21.4406 5.69752 20.0987 5.35435 18.584 5.28099C17.2776 5.20762 15.983 5.21945 14.679 5.21945C13.3726 5.21945 12.078 5.20762 10.774 5.28099C9.25934 5.35435 7.91511 5.69989 6.80752 6.80752C5.69752 7.91746 5.35435 9.25934 5.28099 10.774C5.20762 12.0804 5.21945 13.375 5.21945 14.679C5.21945 15.983 5.20762 17.28 5.28099 18.584C5.35435 20.0987 5.69989 21.443 6.80752 22.5505C7.91746 23.6605 9.25934 24.0037 10.774 24.0771C12.0804 24.1504 13.375 24.1386 14.679 24.1386C15.9854 24.1386 17.28 24.1504 18.584 24.0771C20.0987 24.0037 21.443 23.6581 22.5505 22.5505C23.6605 21.4406 24.0037 20.0987 24.0771 18.584C24.1528 17.28 24.1386 15.9854 24.1386 14.679ZM14.6766 19.5331C11.9905 19.5331 9.82259 17.3652 9.82259 14.679C9.82259 11.9928 11.9905 9.82501 14.6766 9.82501C17.3628 9.82501 19.5307 11.9928 19.5307 14.679C19.5307 17.3652 17.3628 19.5331 14.6766 19.5331ZM19.7295 10.7598C19.1023 10.7598 18.5958 10.2533 18.5958 9.62621C18.5958 8.99901 19.1023 8.49259 19.7295 8.49259C20.3566 8.49259 20.8631 8.99901 20.8631 9.62621C20.8633 9.7751 20.8341 9.92261 20.7772 10.0602C20.7203 10.1979 20.6368 10.3229 20.5315 10.4282C20.4262 10.5335 20.3012 10.617 20.1635 10.6739C20.0259 10.7308 19.8784 10.76 19.7295 10.7598Z" fill="#BBFF00"/>
</g>
<defs>
<clipPath id="clip0_714_3144">
<rect width="29.36" height="29.36" fill="white"/>
</clipPath>
</defs>
</svg>
