<svg width="30" height="30" viewBox="0 0 30 30" fill="none" xmlns="http://www.w3.org/2000/svg">
<g clip-path="url(#clip0_714_3136)">
<path d="M14.68 29.36C22.7875 29.36 29.36 22.7875 29.36 14.68C29.36 6.57246 22.7875 0 14.68 0C6.57246 0 0 6.57246 0 14.68C0 22.7875 6.57246 29.36 14.68 29.36Z" fill="#0C0C0C"/>
<path d="M21.8961 21.0788H18.996V17.1155C18.996 16.1703 18.9767 14.9536 17.4876 14.9536C15.9771 14.9536 15.746 15.9834 15.746 17.0466V21.0785H12.8458V12.9282H15.63V14.0421H15.669C15.9476 13.6263 16.3502 13.2843 16.834 13.0525C17.3177 12.8206 17.8645 12.7076 18.416 12.7255C21.3554 12.7255 21.8974 14.4127 21.8974 16.6077L21.8961 21.0788ZM9.57349 11.8141C9.24068 11.8141 8.91524 11.7281 8.63841 11.5667C8.36164 11.4054 8.14588 11.1761 8.01845 10.9077C7.89103 10.6394 7.85763 10.3441 7.92248 10.0592C7.9874 9.77428 8.14764 9.51259 8.38298 9.30713C8.61825 9.10168 8.91811 8.96179 9.24459 8.90503C9.57101 8.84833 9.90943 8.87737 10.217 8.98848C10.5246 9.09959 10.7874 9.28782 10.9724 9.52929C11.1574 9.77076 11.2561 10.0547 11.2562 10.3452C11.2563 10.538 11.2128 10.7291 11.1282 10.9073C11.0436 11.0854 10.9197 11.2474 10.7635 11.3838C10.6072 11.5202 10.4217 11.6284 10.2175 11.7023C10.0134 11.776 9.79454 11.8141 9.57349 11.8141ZM11.0236 21.0788H8.12043V12.9282H11.0236V21.0788ZM23.342 6.52654H6.66307C6.28452 6.52281 5.91974 6.65038 5.64891 6.88121C5.37808 7.11211 5.22337 7.42731 5.21875 7.75771V22.373C5.22321 22.7034 5.37783 23.0189 5.64865 23.25C5.91947 23.4811 6.28434 23.6089 6.66307 23.6055H23.342C23.7215 23.6096 24.0874 23.4821 24.3593 23.251C24.6312 23.0199 24.7868 22.7042 24.7921 22.373V7.7566C24.7867 7.42561 24.6309 7.11003 24.359 6.87919C24.0871 6.64836 23.7214 6.52112 23.342 6.5255" fill="#BBFF00"/>
</g>
<defs>
<clipPath id="clip0_714_3136">
<rect width="29.36" height="29.36" fill="white"/>
</clipPath>
</defs>
</svg>
