<svg width="30" height="30" viewBox="0 0 30 30" fill="none" xmlns="http://www.w3.org/2000/svg">
<g clip-path="url(#clip0_714_3148)">
<path d="M14.6816 29.3633C22.7901 29.3633 29.3633 22.7901 29.3633 14.6816C29.3633 6.57319 22.7901 0 14.6816 0C6.57319 0 0 6.57319 0 14.6816C0 22.7901 6.57319 29.3633 14.6816 29.3633Z" fill="#0C0C0C"/>
<path d="M23.7617 10.6049C23.7756 10.7827 23.7756 10.9605 23.7756 11.1399C23.7756 16.607 19.0624 22.9124 10.4439 22.9124V22.9091C7.89799 22.9124 5.40496 22.2684 3.26172 21.0542C3.63192 21.0936 4.00397 21.1132 4.37695 21.114C6.48679 21.1157 8.53634 20.4906 10.1962 19.3394C8.19116 19.3059 6.43298 18.1514 5.81877 16.4662C6.52113 16.5858 7.24482 16.5612 7.9342 16.3948C5.74825 16.0049 4.17561 14.3089 4.17561 12.3393C4.17561 12.3213 4.17561 12.3041 4.17561 12.2869C4.82694 12.6072 5.5562 12.7851 6.30216 12.8047C4.24335 11.5897 3.60872 9.17109 4.85199 7.28016C7.23092 9.86504 10.7408 11.4365 14.5086 11.6028C14.131 10.1657 14.6469 8.6599 15.8642 7.64968C17.7514 6.08318 20.7194 6.16348 22.4934 7.82912C23.5428 7.64641 24.5485 7.30639 25.4689 6.82463C25.1192 7.7824 24.3871 8.59596 23.4092 9.11295C24.3379 9.01624 25.2453 8.79667 26.0998 8.4616C25.4708 9.29402 24.6784 10.0191 23.7617 10.6049Z" fill="#BBFF00"/>
</g>
<defs>
<clipPath id="clip0_714_3148">
<rect width="29.3633" height="29.3633" fill="white"/>
</clipPath>
</defs>
</svg>
